<?xml version="1.0" encoding="iso-8859-1"?>
<!-- Generator: Adobe Illustrator 19.0.0, SVG Export Plug-In . SVG Version: 6.00 Build 0)  -->
<svg version="1.1" id="Capa_1" xmlns="http://www.w3.org/2000/svg" xmlns:xlink="http://www.w3.org/1999/xlink" x="0px" y="0px"
	 viewBox="0 0 511.5 511.5" style="enable-background:new 0 0 511.5 511.5;" xml:space="preserve">
<g>
	<path d="M463.25,24.5h-40V0h-15v24.5h-25V0h-15v24.5h-25V0h-15v24.5h-25V0h-15v24.5h-25V0h-15v24.5h-25V0h-15v24.5h-25V0h-15v24.5
		h-25V0h-15v24.5h-25V0h-15v24.5h-40v95h16v392h279.5h7.5h3.606l92.394-92.394V415.5V408V119.5h16V24.5z M351.25,493.894V415.5
		h78.394L351.25,493.894z M432.25,400.5h-96v96h-257v-377h353V400.5z M448.25,104.5h-385v-65h25V64h15V39.5h25V64h15V39.5h25V64h15
		V39.5h25V64h15V39.5h25V64h15V39.5h25V64h15V39.5h25V64h15V39.5h25V64h15V39.5h25V64h15V39.5h25V104.5z"/>
	<rect x="119.75" y="176.5" width="32" height="15"/>
	<rect x="119.75" y="272.5" width="32" height="15"/>
	<rect x="119.75" y="368.5" width="32" height="15"/>
	<rect x="119.75" y="224.5" width="32" height="15"/>
	<rect x="119.75" y="320.5" width="32" height="15"/>
	<rect x="119.75" y="416.5" width="32" height="15"/>
	<rect x="175.75" y="176.5" width="216" height="15"/>
	<rect x="175.75" y="272.5" width="216" height="15"/>
	<rect x="175.75" y="368.5" width="216" height="15"/>
	<rect x="175.75" y="224.5" width="216" height="15"/>
	<rect x="175.75" y="320.5" width="216" height="15"/>
	<rect x="175.75" y="416.5" width="144" height="15"/>
</g>
<g>
</g>
<g>
</g>
<g>
</g>
<g>
</g>
<g>
</g>
<g>
</g>
<g>
</g>
<g>
</g>
<g>
</g>
<g>
</g>
<g>
</g>
<g>
</g>
<g>
</g>
<g>
</g>
<g>
</g>
</svg>
