<?xml version="1.0" encoding="iso-8859-1"?>
<!-- Generator: Adobe Illustrator 19.0.0, SVG Export Plug-In . SVG Version: 6.00 Build 0)  -->
<svg version="1.1" id="Layer_1" xmlns="http://www.w3.org/2000/svg" xmlns:xlink="http://www.w3.org/1999/xlink" x="0px" y="0px"
	 viewBox="0 0 511.998 511.998" style="enable-background:new 0 0 511.998 511.998;" xml:space="preserve">
<g>
	<g>
		<path d="M350.128,65.74c-3.162-3.152-8.279-3.142-11.429,0.02c-3.151,3.162-3.142,8.279,0.021,11.429
			c29.422,29.321,42.067,76.268,30.748,114.167c-1.277,4.277,1.154,8.779,5.432,10.057c0.772,0.231,1.55,0.339,2.316,0.339
			c3.48,0,6.694-2.266,7.742-5.771C398.108,151.946,384.112,99.604,350.128,65.74z"/>
	</g>
</g>
<g>
	<g>
		<path d="M314.595,40.465c-18.094-8.848-38.355-13.525-58.597-13.525c-4.463,0-8.082,3.617-8.082,8.082s3.619,8.082,8.082,8.082
			c17.793,0,35.601,4.109,51.494,11.881c1.143,0.559,2.352,0.824,3.545,0.824c2.989,0,5.864-1.667,7.266-4.534
			C320.265,47.266,318.603,42.425,314.595,40.465z"/>
	</g>
</g>
<g>
	<g>
		<path d="M255.999,53.88c-58.921,0-106.857,47.935-106.857,106.857c0,58.921,47.935,106.857,106.857,106.857
			c58.921,0,106.856-47.935,106.856-106.857S314.92,53.88,255.999,53.88z M255.998,251.429c-50.008,0-90.692-40.685-90.692-90.692
			s40.685-90.692,90.692-90.692c50.007,0,90.692,40.685,90.692,90.692C346.69,210.744,306.006,251.429,255.998,251.429z"/>
	</g>
</g>
<g>
	<g>
		<path d="M495.849,440.784l-88.701-225.351c6.201-17.081,9.587-35.5,9.587-54.696C416.736,72.106,344.629,0,255.998,0
			C167.368,0,95.261,72.106,95.261,160.737c0,19.196,3.388,37.615,9.587,54.696l-88.7,225.351c-1.156,2.937-0.497,6.277,1.688,8.554
			c2.184,2.278,5.495,3.076,8.476,2.043l95.66-33.106l47.429,89.427c1.407,2.653,4.161,4.295,7.139,4.295
			c0.152,0,0.304-0.004,0.457-0.013c3.151-0.178,5.91-2.174,7.066-5.109L256,324.115l71.937,182.761
			c1.156,2.937,3.915,4.931,7.066,5.109c0.153,0.009,0.305,0.013,0.457,0.013c2.979,0,5.732-1.642,7.139-4.295l47.43-89.427
			l95.66,33.106c2.98,1.03,6.292,0.234,8.477-2.043C496.349,447.061,497.004,443.721,495.849,440.784z M175.453,484.617
			l-42.444-80.029c-1.435-2.706-4.22-4.296-7.141-4.296c-0.879,0-1.772,0.144-2.642,0.445l-85.605,29.627
			c0,0,76.416-194.139,76.418-194.145c-0.322,0.818,2.833,5.121,3.328,5.966c1.193,2.037,2.431,4.046,3.712,6.028
			c2.546,3.938,5.266,7.764,8.148,11.464c5.712,7.333,12.064,14.167,18.959,20.4c13.741,12.418,29.636,22.417,46.78,29.425
			c14.314,5.851,29.508,9.624,44.894,11.164c0.04,0.004,0.079,0.01,0.119,0.014L175.453,484.617z M270.961,304.509
			c-74.614,7.66-144.663-45.109-157.433-119.119c-1.404-8.138-2.102-16.395-2.102-24.652
			C111.425,81.02,176.281,16.164,255.998,16.164c79.718,0,144.574,64.856,144.574,144.573c0,72.766-56.616,135.973-129.026,143.711
			C271.35,304.468,271.155,304.489,270.961,304.509z M388.771,400.737c-3.764-1.302-7.916,0.331-9.784,3.851l-42.444,80.028
			l-64.526-163.936c0.04-0.004,0.079-0.01,0.119-0.014c20.029-2.007,39.655-7.787,57.556-16.996
			c16.51-8.494,31.509-19.871,44.137-33.482c4.709-5.076,9.089-10.457,13.102-16.098c2.023-2.844,3.953-5.753,5.787-8.723
			c0.62-1.004,5.763-8.365,5.243-9.148l76.417,194.145L388.771,400.737z"/>
	</g>
</g>
<g>
</g>
<g>
</g>
<g>
</g>
<g>
</g>
<g>
</g>
<g>
</g>
<g>
</g>
<g>
</g>
<g>
</g>
<g>
</g>
<g>
</g>
<g>
</g>
<g>
</g>
<g>
</g>
<g>
</g>
</svg>
